<svg xmlns="http://www.w3.org/2000/svg" viewBox="0 0 512 512" width="512" height="512">
  <rect width="512" height="512" rx="96" fill="#0f172a"/>
  <!-- Open book -->
  <g fill="none" stroke="#818cf8" stroke-linecap="round" stroke-linejoin="round">
    <!-- Left page -->
    <path d="M256 160 C256 160 200 152 148 168 C148 168 140 172 140 180 L140 340 C140 348 148 352 156 348 C200 332 256 340 256 340" stroke-width="18" fill="#1e1b4b"/>
    <!-- Right page -->
    <path d="M256 160 C256 160 312 152 364 168 C364 168 372 172 372 180 L372 340 C372 348 364 352 356 348 C312 332 256 340 256 340" stroke-width="18" fill="#1e1b4b"/>
    <!-- Spine -->
    <line x1="256" y1="160" x2="256" y2="340" stroke-width="18"/>
  </g>
  <!-- "SV" text -->
  <text x="256" y="290" font-family="system-ui, sans-serif" font-size="88" font-weight="700" fill="#818cf8" text-anchor="middle" letter-spacing="-4">SV</text>
</svg>
